<svg width="32" height="32" viewBox="0 0 32 32" fill="none" xmlns="http://www.w3.org/2000/svg">
<path fill-rule="evenodd" clip-rule="evenodd" d="M3 0C1.34315 0 0 1.34315 0 3V29C0 30.6569 1.34315 32 3 32H29C30.6569 32 32 30.6569 32 29V3C32 1.34315 30.6569 0 29 0H3ZM20 6C21.1046 6 22 5.10457 22 4C22 2.89543 21.1046 2 20 2H4C2.89543 2 2 2.89543 2 4V20C2 21.1046 2.89543 22 4 22C5.10457 22 6 21.1046 6 20V8C6 6.89543 6.89543 6 8 6H20ZM12 10C10.8954 10 10 10.8954 10 12V28C10 29.1046 10.8954 30 12 30H28C29.1046 30 30 29.1046 30 28V12C30 10.8954 29.1046 10 28 10H12Z" fill="#4570b6"/>
</svg>
