<svg width="32" height="32" viewBox="0 0 32 32" fill="none" xmlns="http://www.w3.org/2000/svg">
<path fill-rule="evenodd" clip-rule="evenodd" d="M0 3C0 1.34315 1.34315 0 3 0H29C30.6569 0 32 1.34315 32 3V29C32 30.6569 30.6569 32 29 32H3C1.34315 32 0 30.6569 0 29V3ZM6.40332 14.9584L8.69719 17.3294L6.52858 19.3866C5.92119 20.0157 5.58002 20.8685 5.58002 21.7576C5.58002 22.6467 5.92119 23.4995 6.52858 24.1286L7.67552 25.3151C8.28361 25.9435 9.10794 26.2964 9.96742 26.2964C10.8269 26.2964 11.6512 25.9435 12.2593 25.3151L17.4714 19.8968C18.0794 19.2677 18.421 18.4145 18.421 17.5248C18.421 16.6352 18.0794 15.782 17.4714 15.1528L16.3245 13.9663C16.1285 13.7681 15.9088 13.5966 15.6708 13.456L18.0449 11L20.3387 13.373C21.4025 14.4741 22 15.9671 22 17.5238C22 19.0805 21.4025 20.5735 20.3387 21.6746L13.9817 28.2814C12.9173 29.3818 11.4742 30 9.96938 30C8.46461 30 7.02142 29.3818 5.95708 28.2814L3.66125 25.9084C2.59754 24.8073 2 23.3143 2 21.7576C2 20.2009 2.59754 18.7079 3.66125 17.6068L6.40528 14.9564L6.40332 14.9584ZM23.4933 14.8755L25.8057 17.2689V17.2669L28.3253 14.4997C29.3976 13.3892 30 11.8834 30 10.3133C30 8.74318 29.3976 7.23735 28.3253 6.1268L26.0129 3.73336C24.9399 2.62347 23.4851 2 21.9681 2C20.4512 2 18.9963 2.62347 17.9234 3.73336L11.6747 10.2357C10.6024 11.3462 10 12.852 10 14.4221C10 15.9922 10.6024 17.4981 11.6747 18.6086L13.9851 21L16.3785 18.5249C16.1397 18.3819 15.9168 18.2104 15.7195 18.0102L14.5632 16.8135C13.9503 16.179 13.606 15.3184 13.606 14.4211C13.606 13.5238 13.9503 12.6633 14.5632 12.0287L19.6577 6.7272C20.2707 6.09344 21.1017 5.73746 21.9681 5.73746C22.8346 5.73746 23.6656 6.09344 24.2786 6.7272L25.4348 7.92392C26.0471 8.55841 26.391 9.41852 26.391 10.3153C26.391 11.2121 26.0471 12.0722 25.4348 12.7067L23.4933 14.8755Z" fill="#4570b6"/>
</svg>
