<svg width="32" height="32" viewBox="0 0 32 32" fill="none" xmlns="http://www.w3.org/2000/svg">
<path fill-rule="evenodd" clip-rule="evenodd" d="M3 0C1.34315 0 0 1.34315 0 3V29C0 30.6569 1.34315 32 3 32H29C30.6569 32 32 30.6569 32 29V3C32 1.34315 30.6569 0 29 0H3ZM26.4802 2.19376C26.789 2.06584 27.1201 2 27.4544 2C28.1295 2 28.777 2.26818 29.2544 2.74555C29.7318 3.22291 30 3.87036 30 4.54545C30 5.22055 29.7318 5.868 29.2544 6.34536C28.777 6.82273 28.1295 7.09091 27.4544 7.09091C27.1201 7.09091 26.789 7.02507 26.4802 6.89715C26.1713 6.76923 25.8907 6.58173 25.6543 6.34536C25.4179 6.109 25.2304 5.82839 25.1025 5.51956C24.9746 5.21073 24.9087 4.87973 24.9087 4.54545C24.9087 4.21118 24.9746 3.88018 25.1025 3.57135C25.2304 3.26252 25.4179 2.98191 25.6543 2.74555C25.8907 2.50918 26.1713 2.32168 26.4802 2.19376ZM3.83228 12.739C4.4301 12.3749 5.11649 12.1822 5.81645 12.1818C6.60639 12.1816 7.37696 12.4263 8.02206 12.8821C8.66716 13.338 9.15504 13.9826 9.41853 14.7273H12.1805V4.54545C12.1805 4.20791 12.3146 3.88418 12.5533 3.6455C12.792 3.40682 13.1158 3.27273 13.4534 3.27273H21.0903C21.4278 3.27273 21.7516 3.40682 21.9903 3.6455C22.229 3.88418 22.3631 4.20791 22.3631 4.54545C22.3631 4.883 22.229 5.20673 21.9903 5.44541C21.7516 5.68409 21.4278 5.81818 21.0903 5.81818H14.7262V14.7273H21.0903C21.4278 14.7273 21.7516 14.8614 21.9903 15.1C22.229 15.3387 22.3631 15.6625 22.3631 16C22.3631 16.3375 22.229 16.6613 21.9903 16.9C21.7516 17.1386 21.4278 17.2727 21.0903 17.2727H14.7262V26.1818H21.0903C21.4278 26.1818 21.7516 26.3159 21.9903 26.5546C22.229 26.7933 22.3631 27.117 22.3631 27.4545C22.3631 27.7921 22.229 28.1158 21.9903 28.3545C21.7516 28.5932 21.4278 28.7273 21.0903 28.7273H13.4534C13.1158 28.7273 12.792 28.5932 12.5533 28.3545C12.3146 28.1158 12.1805 27.7921 12.1805 27.4545V17.2727H9.41853C9.18521 17.9326 8.77498 18.5157 8.23268 18.9582C7.69038 19.4007 7.03686 19.6857 6.34355 19.7819C5.65024 19.8782 4.94381 19.782 4.30146 19.5039C3.65911 19.2259 3.10555 18.7766 2.70128 18.2052C2.29701 17.6339 2.05758 16.9624 2.00915 16.2642C1.96073 15.5659 2.10517 14.8678 2.4267 14.2461C2.74822 13.6244 3.23446 13.103 3.83228 12.739ZM24.9087 16C24.9087 15.3249 25.1769 14.6775 25.6543 14.2001C26.1317 13.7227 26.7792 13.4545 27.4544 13.4545C28.1295 13.4545 28.777 13.7227 29.2544 14.2001C29.7318 14.6775 30 15.3249 30 16C30 16.6751 29.7318 17.3225 29.2544 17.7999C28.777 18.2773 28.1295 18.5455 27.4544 18.5455C26.7792 18.5455 26.1317 18.2773 25.6543 17.7999C25.1769 17.3225 24.9087 16.6751 24.9087 16ZM24.9087 27.4545C24.9087 26.7794 25.1769 26.132 25.6543 25.6546C26.1317 25.1773 26.7792 24.9091 27.4544 24.9091C28.1295 24.9091 28.777 25.1773 29.2544 25.6546C29.7318 26.132 30 26.7794 30 27.4545C30 28.1296 29.7318 28.7771 29.2544 29.2545C28.777 29.7318 28.1295 30 27.4544 30C26.7792 30 26.1317 29.7318 25.6543 29.2545C25.1769 28.7771 24.9087 28.1296 24.9087 27.4545Z" fill="#4570b6"/>
</svg>
