<svg width="32" height="32" viewBox="0 0 32 32" fill="none" xmlns="http://www.w3.org/2000/svg">
<path fill-rule="evenodd" clip-rule="evenodd" d="M0 3C0 1.34315 1.34315 0 3 0H29C30.6569 0 32 1.34315 32 3V29C32 30.6569 30.6569 32 29 32H3C1.34315 32 0 30.6569 0 29V3ZM13.3367 9.18367C13.3367 9.8374 12.8068 10.3673 12.1531 10.3673H5.86735C4.76278 10.3673 3.86735 11.2628 3.86735 12.3673V18.6531C3.86735 19.3068 3.3374 19.8367 2.68367 19.8367C2.02995 19.8367 1.5 19.3068 1.5 18.6531V10C1.5 8.89543 2.39543 8 3.5 8H12.1531C12.8068 8 13.3367 8.52995 13.3367 9.18367ZM6.23469 14.7347C6.23469 13.6301 7.13012 12.7347 8.23469 12.7347H13.9286V10C13.9286 8.89543 14.824 8 15.9286 8H24.5816C25.2354 8 25.7653 8.52995 25.7653 9.18367C25.7653 9.8374 25.2354 10.3673 24.5816 10.3673H18.2959C17.1913 10.3673 16.2959 11.2628 16.2959 12.3673V12.7472C17.2948 12.8587 18.0714 13.706 18.0714 14.7347V22.5714C18.0714 23.676 17.176 24.5714 16.0714 24.5714H8.23469C7.13013 24.5714 6.23469 23.676 6.23469 22.5714V14.7347ZM20.6633 12.7347C19.5587 12.7347 18.6633 13.6301 18.6633 14.7347V22.5714C18.6633 23.676 19.5587 24.5714 20.6633 24.5714H28.5C29.6046 24.5714 30.5 23.676 30.5 22.5714V14.7347C30.5 13.6301 29.6046 12.7347 28.5 12.7347H20.6633Z" fill="#4570b6"/>
<rect x="10" y="10.37" width="8" height="2.37" fill="#4570b6"/>
</svg>
