<svg width="30" height="30" viewBox="0 0 30 30" fill="none" xmlns="http://www.w3.org/2000/svg">
<line x1="9" y1="1" x2="9" y2="23" stroke="#4570b6" stroke-width="2" stroke-dasharray="2 2"/>
<line x1="22" y1="1" x2="22" y2="23" stroke="#4570b6" stroke-width="2" stroke-dasharray="2 2"/>
<path fill-rule="evenodd" clip-rule="evenodd" d="M3 0C1.34315 0 0 1.34315 0 3V27C0 28.6569 1.34315 30 3 30H27C28.6569 30 30 28.6569 30 27V3C30 1.34315 28.6569 0 27 0H3ZM1.51707 21.9091L1.5 22V21.9091H1.51707ZM1.51707 21.9091C1.7928 20.4532 5.37816 2 9.96 2C12.0822 2 13.0154 4.08863 13.8816 6.02731C14.6317 7.70625 15.3316 9.27273 16.71 9.27273C18.1732 9.27273 18.7844 8.36812 19.4047 7.45021C20.0435 6.50489 20.6918 5.54545 22.29 5.54545C27.24 5.54545 28.5 21.9091 28.5 21.9091H1.51707ZM9 24L10.7321 27H7.26795L9 24ZM23.7321 27L22 24L20.268 27H23.7321Z" fill="#4570b6"/>
</svg>
