<svg width="22" height="22" viewBox="0 0 22 22" fill="none" xmlns="http://www.w3.org/2000/svg">
<path d="M20.6853 14.304C19.5536 13.1714 17.9833 12.6916 15.9667 13.2321L8.7755 6.03363L8.87054 5.67424C9.28472 4.12023 8.8372 2.44981 7.703 1.31561C6.54817 0.159877 4.90641 -0.264182 3.35374 0.162326C3.13232 0.223127 2.95997 0.397108 2.90132 0.619128C2.84266 0.841147 2.90699 1.07713 3.06928 1.23951L4.8008 2.97102C5.30701 3.47849 5.30207 4.2912 4.80204 4.79256C4.30597 5.28997 3.47212 5.28919 2.97802 4.79381L1.24616 3.06182C1.08378 2.89935 0.847108 2.83563 0.625088 2.89463C0.403025 2.95358 0.229689 3.12636 0.169103 3.34799C-0.251175 4.88361 0.162271 6.53555 1.32264 7.69592C2.45384 8.82793 4.02216 9.30944 6.04002 8.76782L13.2317 15.9663C12.6951 17.9824 13.158 19.5374 14.3049 20.6843C15.4612 21.8415 17.1037 22.2624 18.653 21.8373C18.8745 21.7765 19.0468 21.6025 19.1055 21.3805C19.1642 21.1585 19.1 20.9224 18.9376 20.76L17.2065 19.0289C16.7002 18.5214 16.7052 17.7086 17.2052 17.2074C17.7075 16.7077 18.5395 16.7156 19.0292 17.2067L20.7612 18.9382C20.9236 19.1006 21.1603 19.1643 21.3822 19.1053C21.6043 19.0463 21.7776 18.8737 21.8382 18.6521C22.2585 17.1167 21.8451 15.4643 20.6853 14.304Z" fill="black"/>
<path d="M6.89833 11.4548L0.754135 17.5998C-0.251378 18.6053 -0.251378 20.2405 0.754135 21.2459C1.75965 22.2514 3.39478 22.2514 4.40025 21.2459L10.5443 15.1011L6.89833 11.4548ZM3.79474 19.2457C3.54294 19.4975 3.13517 19.4975 2.88337 19.2457C2.63161 18.9939 2.63161 18.5861 2.88337 18.3343L6.79267 14.4243C7.04443 14.1725 7.45233 14.1725 7.70404 14.4243C7.95579 14.676 7.95579 15.0839 7.70404 15.3356L3.79474 19.2457Z" fill="black"/>
<path d="M21.8113 1.29994L20.7002 0.188811C20.491 -0.0203178 20.1665 -0.0602788 19.9129 0.0917878L16.4948 2.14239C16.1352 2.35813 16.0741 2.8543 16.3706 3.15082L16.6427 3.42282L12.3037 7.74406L14.1271 9.56744L18.4661 5.2462L18.8493 5.62952C19.1458 5.92596 19.6421 5.86495 19.8578 5.5053L21.9084 2.08726C22.0604 1.83361 22.0204 1.50907 21.8113 1.29994Z" fill="black"/>
</svg>
