<svg width="25" height="18" viewBox="0 0 25 18" fill="none" xmlns="http://www.w3.org/2000/svg">
<path d="M0.267387 5.00363C0.438415 5.1695 0.659289 5.252 0.880164 5.252C1.10963 5.252 1.3391 5.16262 1.51185 4.98472L3.38461 3.05465L3.38499 17.1199C3.38499 17.6064 3.77904 18 4.26505 18C4.75106 18 5.14511 17.6064 5.14511 17.1199L5.14473 3.05465L7.01782 4.98472C7.35686 5.33365 7.91378 5.34224 8.26228 5.00363C8.61121 4.66501 8.61937 4.1081 8.28118 3.75917L4.8963 0.270722C4.89603 0.2704 4.89555 0.270346 4.89528 0.270024C4.73526 0.104529 4.51305 0 4.26462 0C4.01619 0 3.79397 0.104529 3.63395 0.270024C3.63368 0.270346 3.6332 0.2704 3.63293 0.270722L0.24848 3.75917C-0.0901376 4.1081 -0.0815431 4.66501 0.267387 5.00363Z" fill="#8F8F90"/>
<path d="M21.8961 6.29193C21.8961 5.80549 21.502 5.41187 21.016 5.41187H11.466C10.98 5.41187 10.5859 5.80549 10.5859 6.29193C10.5859 6.77837 10.98 7.17199 11.466 7.17199H21.016C21.502 7.17199 21.8961 6.77837 21.8961 6.29193Z" fill="#8F8F90"/>
<path d="M19.1502 11.7046C19.1502 11.2182 18.7562 10.8246 18.2701 10.8246H11.466C10.98 10.8246 10.5859 11.2182 10.5859 11.7046C10.5859 12.1911 10.98 12.5847 11.466 12.5847H18.2701C18.7562 12.5847 19.1502 12.1911 19.1502 11.7046Z" fill="#8F8F90"/>
<path d="M11.466 16.2399C10.98 16.2399 10.5859 16.6335 10.5859 17.1199C10.5859 17.6064 10.98 18 11.466 18H15.5247C16.0107 18 16.4047 17.6064 16.4047 17.1199C16.4047 16.6335 16.0107 16.2399 15.5247 16.2399H11.466Z" fill="#8F8F90"/>
<path d="M23.7619 0H11.466C10.98 0 10.5859 0.393621 10.5859 0.880061C10.5859 1.3665 10.98 1.76012 11.466 1.76012H23.7619C24.2479 1.76012 24.642 1.3665 24.642 0.880061C24.642 0.393621 24.2479 0 23.7619 0Z" fill="#8F8F90"/>
</svg>
