<svg width="28" height="20" viewBox="0 0 28 20" fill="none" xmlns="http://www.w3.org/2000/svg">
<path d="M0.297097 14.4404C-0.0906036 14.8167 -0.100153 15.4354 0.276089 15.8231L4.03659 19.6992C4.03683 19.6994 4.03719 19.6996 4.03743 19.6998C4.21516 19.8837 4.46213 20 4.73846 20C5.0148 20 5.26177 19.8837 5.4395 19.6998C5.43974 19.6996 5.4401 19.6994 5.44034 19.6992L9.2018 15.8231C9.57804 15.4354 9.56849 14.8167 9.18079 14.4404C8.79309 14.0642 8.17429 14.0737 7.79805 14.4614L5.71631 16.6068V0.977846C5.71631 0.437357 5.27895 0 4.73846 0C4.19798 0 3.76062 0.437357 3.76062 0.977846V16.6065L1.67983 14.4614C1.30359 14.0737 0.684798 14.0642 0.297097 14.4404Z" fill="#8F8F90"/>
<path d="M24.3286 6.99103C24.3286 6.45054 23.8912 6.01318 23.3507 6.01318H12.7396C12.1991 6.01318 11.7617 6.45054 11.7617 6.99103C11.7617 7.53152 12.1991 7.96887 12.7396 7.96887H23.3507C23.8912 7.96887 24.3286 7.53152 24.3286 6.99103Z" fill="#8F8F90"/>
<path d="M21.2776 13.0051C21.2776 12.4646 20.8402 12.0273 20.2997 12.0273H12.7396C12.1991 12.0273 11.7617 12.4646 11.7617 13.0051C11.7617 13.5456 12.1991 13.983 12.7396 13.983H20.2997C20.8402 13.983 21.2776 13.5456 21.2776 13.0051Z" fill="#8F8F90"/>
<path d="M12.7396 18.0443C12.1991 18.0443 11.7617 18.4817 11.7617 19.0222C11.7617 19.5626 12.1991 20 12.7396 20H17.2487C17.7892 20 18.2266 19.5626 18.2266 19.0222C18.2266 18.4817 17.7892 18.0443 17.2487 18.0443H12.7396Z" fill="#8F8F90"/>
<path d="M26.4017 0H12.7396C12.1991 0 11.7617 0.437357 11.7617 0.977846C11.7617 1.51833 12.1991 1.95569 12.7396 1.95569H26.4017C26.9422 1.95569 27.3796 1.51833 27.3796 0.977846C27.3796 0.437357 26.9422 0 26.4017 0Z" fill="#8F8F90"/>
</svg>
