<svg width="15" height="15" viewBox="0 0 15 15" fill="none" xmlns="http://www.w3.org/2000/svg">
<path d="M7.48809 9.53674e-07C7.70084 -0.00123692 7.90913 0.0609112 8.08642 0.178521C8.26371 0.29613 8.40197 0.463872 8.48355 0.660361C8.56513 0.856852 8.58635 1.07318 8.5445 1.28178C8.50266 1.49038 8.39964 1.68179 8.24858 1.8316L2.57167 7.4978L8.24858 13.164C8.42405 13.3689 8.51575 13.6325 8.50533 13.9021C8.49492 14.1716 8.38317 14.4273 8.19241 14.6181C8.00165 14.8089 7.74594 14.9206 7.47636 14.931C7.20679 14.9414 6.94321 14.8497 6.73831 14.6743L0.311621 8.24758C0.112125 8.04689 0.000148773 7.77542 0.000148773 7.49245C0.000148773 7.20947 0.112125 6.938 0.311621 6.73731L6.73831 0.310625C6.93781 0.112742 7.20709 0.00118351 7.48809 9.53674e-07Z" fill="white"/>
<path d="M13.9148 1.71661e-05C14.1276 -0.00121975 14.3359 0.0609283 14.5132 0.178538C14.6905 0.296147 14.8287 0.463889 14.9103 0.660378C14.9919 0.856868 15.0131 1.0732 14.9713 1.2818C14.9294 1.4904 14.8264 1.6818 14.6753 1.83162L8.99843 7.49782L14.6753 13.164C14.877 13.3657 14.9903 13.6393 14.9903 13.9245C14.9903 14.2097 14.877 14.4833 14.6753 14.685C14.4736 14.8867 14.2001 15 13.9148 15C13.6296 15 13.356 14.8867 13.1544 14.685L6.72767 8.25831C6.52817 8.05762 6.4162 7.78615 6.4162 7.50317C6.4162 7.2202 6.52817 6.94872 6.72767 6.74804L13.1544 0.321351C13.2536 0.220143 13.3719 0.139629 13.5024 0.0844707C13.6329 0.0293121 13.7731 0.000605583 13.9148 1.71661e-05Z" fill="white"/>
</svg>
