<svg width="32" height="32" viewBox="0 0 32 32" fill="none" xmlns="http://www.w3.org/2000/svg">
<path fill-rule="evenodd" clip-rule="evenodd" d="M0 3C0 1.34315 1.34315 0 3 0H29C30.6569 0 32 1.34315 32 3V29C32 30.6569 30.6569 32 29 32H3C1.34315 32 0 30.6569 0 29V3ZM3 5C3 3.89543 3.89543 3 5 3H11V11H5C3.89543 11 3 10.1046 3 9V5ZM20 3H12V11H16L14.5566 13.5H15.75V18.5H14.5566L16 21H12V29H20V21H16L17.4434 18.5H16.25V13.5H17.4434L16 11H20V3ZM27 3H21V11H27C28.1046 11 29 10.1046 29 9V5C29 3.89543 28.1046 3 27 3ZM21 21H27C28.1046 21 29 21.8954 29 23V27C29 28.1046 28.1046 29 27 29H21V21ZM5 21C3.89543 21 3 21.8954 3 23V27C3 28.1046 3.89543 29 5 29H11V21H5ZM5.44 17H4V16H5.44V17ZM10.24 17H7.36V16H10.24V17ZM15.04 17H12.16V16H15.04V17ZM19.84 17H16.96V16H19.84V17ZM24.64 17H21.76V16H24.64V17ZM28 17H26.56V16H28V17Z" fill="#4570b6"/>
</svg>
