<svg width="15" height="15" viewBox="0 0 15 15" fill="none" xmlns="http://www.w3.org/2000/svg">
<path d="M7.5041 15C7.29135 15.0012 7.08305 14.9391 6.90576 14.8215C6.72847 14.7039 6.59022 14.5361 6.50864 14.3396C6.42706 14.1431 6.40584 13.9268 6.44768 13.7182C6.48953 13.5096 6.59255 13.3182 6.74361 13.1684L12.4205 7.5022L6.74361 1.836C6.56813 1.6311 6.47644 1.36752 6.48685 1.09795C6.49727 0.828375 6.60902 0.572658 6.79978 0.381899C6.99054 0.191139 7.24625 0.0793876 7.51583 0.0689751C7.7854 0.0585626 8.04898 0.150257 8.25388 0.325733L14.6806 6.75242C14.8801 6.95311 14.992 7.22458 14.992 7.50755C14.992 7.79053 14.8801 8.062 14.6806 8.26269L8.25388 14.6894C8.05437 14.8873 7.7851 14.9988 7.5041 15Z" fill="white"/>
<path d="M1.07734 15C0.864594 15.0012 0.656295 14.9391 0.479005 14.8215C0.301714 14.7039 0.163465 14.5361 0.0818812 14.3396C0.000297893 14.1431 -0.0209225 13.9268 0.0209256 13.7182C0.0627737 13.5096 0.165794 13.3182 0.316852 13.1684L5.99376 7.50218L0.316852 1.83599C0.115158 1.63429 0.00184663 1.36074 0.00184663 1.0755C0.00184663 0.790258 0.115158 0.516701 0.316852 0.315006C0.518547 0.113311 0.792104 2.1252e-09 1.07734 0C1.36258 -2.1252e-09 1.63614 0.113311 1.83783 0.315006L8.26452 6.74169C8.46402 6.94238 8.57599 7.21385 8.57599 7.49683C8.57599 7.7798 8.46402 8.05128 8.26452 8.25196L1.83783 14.6786C1.73863 14.7799 1.62034 14.8604 1.48979 14.9155C1.35925 14.9707 1.21906 14.9994 1.07734 15Z" fill="white"/>
</svg>
