<svg width="32" height="32" viewBox="0 0 32 32" fill="none" xmlns="http://www.w3.org/2000/svg">
<path fill-rule="evenodd" clip-rule="evenodd" d="M3 0C1.34315 0 0 1.34315 0 3V29C0 30.6569 1.34315 32 3 32H29C30.6569 32 32 30.6569 32 29V3C32 1.34315 30.6569 0 29 0H3ZM8.23243 5.37931C8.00216 6.74871 6.81418 7.7931 5.37931 7.7931C3.77958 7.7931 2.48276 6.49628 2.48276 4.89655C2.48276 3.29682 3.77958 2 5.37931 2C6.81418 2 8.00216 3.0444 8.23243 4.41379H13.8691L13.2449 3.7896L13.9275 3.10695L15.7171 4.89655L13.9275 6.68615L13.2449 6.0035L13.8691 5.37931H8.23243ZM24.931 4.41379H21.7497C21.5194 3.0444 20.3314 2 18.8966 2C17.2968 2 16 3.29682 16 4.89655C16 6.49628 17.2968 7.7931 18.8966 7.7931C20.3314 7.7931 21.5194 6.74871 21.7497 5.37931H24.931C27.7262 5.37931 30 7.65332 30 10.4483C30 13.2432 27.7262 15.5172 24.931 15.5172H17.1654L17.7896 14.893L17.107 14.2104L15.3173 16L17.107 17.7896L17.7896 17.107L17.1654 16.4828H24.931C28.2585 16.4828 30.9655 13.7757 30.9655 10.4483C30.9655 7.12082 28.2585 4.41379 24.931 4.41379ZM30.4828 27.1034C30.4828 28.7032 29.1859 30 27.5862 30C25.9865 30 24.6897 28.7032 24.6897 27.1034C24.6897 25.5037 25.9865 24.2069 27.5862 24.2069C29.1859 24.2069 30.4828 25.5037 30.4828 27.1034ZM14.069 24.2069C12.4692 24.2069 11.1724 25.5037 11.1724 27.1034C11.1724 28.7032 12.4692 30 14.069 30C15.5038 30 16.6918 28.9556 16.9221 27.5862H22.5587L21.9345 28.2104L22.6172 28.893L24.4068 27.1034L22.6172 25.3138L21.9345 25.9965L22.5587 26.6207H16.9221C16.6918 25.2513 15.5038 24.2069 14.069 24.2069ZM9.04149 27.5862H8.03448C4.70703 27.5862 2 24.8792 2 21.5517C2 18.2243 4.70703 15.5172 8.03448 15.5172H9.28481C9.51508 14.1478 10.7031 13.1034 12.1379 13.1034C13.7377 13.1034 15.0345 14.4003 15.0345 16C15.0345 17.5997 13.7377 18.8966 12.1379 18.8966C10.7031 18.8966 9.51508 17.8522 9.28481 16.4828H8.03448C5.23929 16.4828 2.96552 18.7568 2.96552 21.5517C2.96552 24.3467 5.23929 26.6207 8.03448 26.6207H9.04149L8.4173 25.9965L9.09995 25.3138L10.8895 27.1034L9.09995 28.893L8.4173 28.2104L9.04149 27.5862Z" fill="#4570b6"/>
</svg>
