<svg width="10" height="14" viewBox="0 0 10 14" xmlns="http://www.w3.org/2000/svg">
<path d="M3.48926 5.3623H4.93066C5.2998 5.3623 5.60156 5.29785 5.83594 5.16895C6.07617 5.03418 6.25488 4.84668 6.37207 4.60645C6.48926 4.36035 6.54785 4.07031 6.54785 3.73633C6.54785 3.47852 6.49219 3.24121 6.38086 3.02441C6.27539 2.80762 6.11133 2.63477 5.88867 2.50586C5.66602 2.37109 5.38184 2.30371 5.03613 2.30371C4.80176 2.30371 4.57324 2.35352 4.35059 2.45312C4.12793 2.54688 3.94336 2.68164 3.79688 2.85742C3.65625 3.0332 3.58594 3.24707 3.58594 3.49902H0.615234C0.615234 2.77246 0.814453 2.15137 1.21289 1.63574C1.61719 1.11426 2.14746 0.71582 2.80371 0.44043C3.46582 0.15918 4.17773 0.0185547 4.93945 0.0185547C5.84766 0.0185547 6.64453 0.15918 7.33008 0.44043C8.01562 0.71582 8.54883 1.12598 8.92969 1.6709C9.31641 2.20996 9.50977 2.87793 9.50977 3.6748C9.50977 4.11426 9.40723 4.52734 9.20215 4.91406C8.99707 5.30078 8.70996 5.64062 8.34082 5.93359C7.97168 6.22656 7.53809 6.45801 7.04004 6.62793C6.54785 6.79199 6.00879 6.87402 5.42285 6.87402H3.48926V5.3623ZM3.48926 7.56836V6.0918H5.42285C6.06152 6.0918 6.64453 6.16504 7.17188 6.31152C7.69922 6.45215 8.15332 6.66309 8.53418 6.94434C8.91504 7.22559 9.20801 7.57422 9.41309 7.99023C9.61816 8.40039 9.7207 8.87207 9.7207 9.40527C9.7207 10.0029 9.60059 10.5361 9.36035 11.0049C9.12012 11.4736 8.7832 11.8691 8.34961 12.1914C7.91602 12.5137 7.40918 12.7598 6.8291 12.9297C6.24902 13.0938 5.61914 13.1758 4.93945 13.1758C4.40625 13.1758 3.87305 13.1055 3.33984 12.9648C2.80664 12.8184 2.32031 12.5957 1.88086 12.2969C1.44141 11.9922 1.08691 11.6055 0.817383 11.1367C0.553711 10.6621 0.421875 10.0967 0.421875 9.44043H3.39258C3.39258 9.70996 3.46582 9.95605 3.6123 10.1787C3.76465 10.3955 3.9668 10.5684 4.21875 10.6973C4.4707 10.8262 4.74316 10.8906 5.03613 10.8906C5.39941 10.8906 5.70703 10.8232 5.95898 10.6885C6.2168 10.5479 6.41309 10.3604 6.54785 10.126C6.68262 9.8916 6.75 9.63086 6.75 9.34375C6.75 8.91016 6.67676 8.56445 6.53027 8.30664C6.38965 8.04883 6.18164 7.86133 5.90625 7.74414C5.63672 7.62695 5.31152 7.56836 4.93066 7.56836H3.48926Z" fill="black"/>
</svg>
