<svg width="36" height="36" viewBox="0 0 36 36" fill="none" xmlns="http://www.w3.org/2000/svg">
<path d="M18 0.000244141C8.05921 0.000244141 0 8.05875 0 18.0002C0 27.9417 8.05921 36.0002 18 36.0002C27.9408 36.0002 36 27.941 36 18.0002C36 8.05946 27.9408 0.000244141 18 0.000244141Z" fill="#7896C9"/>
<path d="M8.47689 28.1827C19.279 28.1827 28.0357 19.4259 28.0357 8.62455C28.0374 6.51814 27.6983 4.42533 27.0316 2.42721C24.289 0.832885 21.1723 -0.00470905 18 1.99139e-05C8.05923 1.99139e-05 2.01604e-05 8.05923 2.01604e-05 18C-0.00488203 21.2683 0.884314 24.4757 2.57135 27.2749C4.48175 27.8782 6.4735 28.1844 8.47689 28.1827Z" fill="#96B6E3"/>
<path d="M28.5072 18C28.5072 18.2619 28.4556 18.5211 28.3554 18.7631C28.2552 19.005 28.1083 19.2248 27.9231 19.41C27.738 19.5952 27.5181 19.742 27.2762 19.8423C27.0343 19.9425 26.775 19.994 26.5131 19.994H19.9937V26.5134C19.9937 27.0423 19.7837 27.5495 19.4097 27.9234C19.0357 28.2974 18.5285 28.5075 17.9997 28.5075C17.4708 28.5075 16.9636 28.2974 16.5897 27.9234C16.2157 27.5495 16.0056 27.0423 16.0056 26.5134V19.994H9.48625C8.95739 19.994 8.45019 19.784 8.07623 19.41C7.70228 19.036 7.49219 18.5288 7.49219 18C7.49219 17.4711 7.70228 16.9639 8.07623 16.59C8.45019 16.216 8.95739 16.0059 9.48625 16.0059H16.0056V9.48655C16.0056 8.9577 16.2157 8.4505 16.5897 8.07654C16.9636 7.70258 17.4708 7.49249 17.9997 7.49249C18.5285 7.49249 19.0357 7.70258 19.4097 8.07654C19.7837 8.4505 19.9937 8.9577 19.9937 9.48655V16.0059H26.5131C27.042 16.0059 27.5492 16.216 27.9231 16.59C28.2971 16.9639 28.5072 17.4711 28.5072 18Z" fill="white"/>
</svg>
