<svg width="32" height="32" viewBox="0 0 32 32" fill="none" xmlns="http://www.w3.org/2000/svg">
<path fill-rule="evenodd" clip-rule="evenodd" d="M3 0C1.34315 0 0 1.34315 0 3V29C0 30.6569 1.34315 32 3 32H29C30.6569 32 32 30.6569 32 29V3C32 1.34315 30.6569 0 29 0H3ZM26.7168 2.62125L30.9472 14.5213C30.9736 14.6088 30.9912 14.7137 31 14.81V14.8363C31 17.5312 28.6781 19.7362 25.8373 19.7362C22.9789 19.7362 20.6658 17.5312 20.6658 14.8363C20.6658 14.8319 20.668 14.8275 20.6702 14.8231C20.6724 14.8188 20.6746 14.8144 20.6746 14.81C20.6746 14.7137 20.6922 14.6175 20.7186 14.53L24.3245 4.37125L18.81 6.06875C18.6781 7.1275 17.9569 8.0025 16.9631 8.36125V28.1275H23.533C24.0607 28.1275 24.4741 28.5475 24.4741 29.0638C24.4741 29.58 24.0607 30 23.533 30H8.51979C8.00088 30 7.57872 29.58 7.57872 29.0725C7.57872 28.5562 8.00088 28.1363 8.51979 28.1363H15.0897V8.37C14.6412 8.2125 14.2454 7.94125 13.9288 7.57375L7.35884 10.015L11.299 21.2588C11.3342 21.355 11.343 21.4425 11.343 21.5387C11.343 21.5431 11.3452 21.5475 11.3474 21.5519C11.3496 21.5563 11.3518 21.5606 11.3518 21.565C11.3518 24.295 9.02111 26.5263 6.1715 26.5263C3.3131 26.5263 1 24.3038 1 21.565V21.5387C1.0088 21.4425 1.01759 21.355 1.04398 21.2588L5.2832 9.1575C5.2832 9.14875 5.2876 9.14219 5.292 9.13563C5.29639 9.12906 5.30079 9.1225 5.30079 9.11375C5.31838 9.0875 5.33597 9.0525 5.35356 9.0175C5.36553 9.00083 5.37684 8.98417 5.38804 8.96768C5.41798 8.92357 5.44708 8.88072 5.48549 8.8425C5.51187 8.8075 5.53826 8.78125 5.56464 8.755C5.61103 8.71544 5.66741 8.68582 5.72624 8.6549C5.74549 8.64479 5.76501 8.63453 5.78452 8.62375C5.80022 8.61854 5.80969 8.61024 5.81849 8.60253C5.82448 8.59728 5.83016 8.59229 5.83729 8.58875L13.2164 5.85C13.2164 5.8325 13.2142 5.81281 13.212 5.79313C13.2098 5.77344 13.2076 5.75375 13.2076 5.73625C13.2076 4.19625 14.4741 2.93625 16.022 2.93625C17.007 2.93625 17.8865 3.44375 18.3967 4.24L25.5471 2.04375L25.5558 2.035H25.5822C25.6614 2.0175 25.7405 2 25.8373 2C25.8549 2 25.8725 2.00875 25.8901 2.0175C25.9276 2.0175 25.9523 2.02388 25.9807 2.0312C25.9855 2.03245 25.9905 2.03372 25.9956 2.035C26.0748 2.04375 26.1539 2.06125 26.2155 2.09625C26.2595 2.105 26.2858 2.1225 26.3122 2.14C26.3826 2.175 26.4529 2.23625 26.5057 2.28875C26.5174 2.30625 26.5292 2.31597 26.5409 2.32569C26.5468 2.33055 26.5526 2.33542 26.5585 2.34125C26.6201 2.42875 26.6816 2.51625 26.7168 2.62125ZM3.25154 20.6287H9.08267L6.16271 12.3075L3.25154 20.6287ZM25.8373 5.73625L22.9349 13.9H28.7397L25.8373 5.73625Z" fill="#4570b6"/>
</svg>
