<svg width="32" height="32" viewBox="0 0 32 32" fill="none" xmlns="http://www.w3.org/2000/svg">
<path fill-rule="evenodd" clip-rule="evenodd" d="M0 3C0 1.34315 1.34315 0 3 0H29C30.6569 0 32 1.34315 32 3V29C32 30.6569 30.6569 32 29 32H3C1.34315 32 0 30.6569 0 29V3ZM4.46094 15.1797H12.7188C14.0758 15.1797 15.1797 14.0758 15.1797 12.7188V4.46094C15.1797 3.10392 14.0758 2 12.7188 2H4.46094C3.10392 2 2 3.10392 2 4.46094V12.7188C2 14.0758 3.10392 15.1797 4.46094 15.1797ZM6.15625 7.79688H7.79688V6.15625C7.79688 5.70284 8.16377 5.33594 8.61719 5.33594C9.0706 5.33594 9.4375 5.70284 9.4375 6.15625V7.79688H11.0781C11.5315 7.79688 11.8984 8.16377 11.8984 8.61719C11.8984 9.0706 11.5315 9.4375 11.0781 9.4375H9.4375V11.0781C9.4375 11.5315 9.0706 11.8984 8.61719 11.8984C8.16377 11.8984 7.79688 11.5315 7.79688 11.0781V9.4375H6.15625C5.70284 9.4375 5.33594 9.0706 5.33594 8.61719C5.33594 8.16377 5.70284 7.79688 6.15625 7.79688ZM19.2812 2H27.5391C28.8961 2 30 3.10392 30 4.46094V12.7188C30 14.0758 28.8961 15.1797 27.5391 15.1797H19.2812C17.9242 15.1797 16.8203 14.0758 16.8203 12.7188V4.46094C16.8203 3.10392 17.9242 2 19.2812 2ZM20.9219 9.4375H25.8984C26.3519 9.4375 26.7188 9.0706 26.7188 8.61719C26.7188 8.16377 26.3519 7.79688 25.8984 7.79688H20.9219C20.4685 7.79688 20.1016 8.16377 20.1016 8.61719C20.1016 9.0706 20.4685 9.4375 20.9219 9.4375ZM27.5391 16.8203H19.2812C17.9242 16.8203 16.8203 17.9242 16.8203 19.2812V27.5391C16.8203 28.8961 17.9242 30 19.2812 30H27.5391C28.8961 30 30 28.8961 30 27.5391V19.2812C30 17.9242 28.8961 16.8203 27.5391 16.8203ZM25.8984 25.8438H20.9219C20.4685 25.8438 20.1016 25.4769 20.1016 25.0234C20.1016 24.57 20.4685 24.2031 20.9219 24.2031H25.8984C26.3519 24.2031 26.7188 24.57 26.7188 25.0234C26.7188 25.4769 26.3519 25.8438 25.8984 25.8438ZM25.8984 22.5625H20.9219C20.4685 22.5625 20.1016 22.1956 20.1016 21.7422C20.1016 21.2888 20.4685 20.9219 20.9219 20.9219H25.8984C26.3519 20.9219 26.7188 21.2888 26.7188 21.7422C26.7188 22.1956 26.3519 22.5625 25.8984 22.5625ZM15.1797 19.2812V27.5391C15.1797 28.8961 14.0758 30 12.7188 30H4.46094C3.10392 30 2 28.8961 2 27.5391V19.2812C2 17.9242 3.10392 16.8203 4.46094 16.8203H12.7188C14.0758 16.8203 15.1797 17.9242 15.1797 19.2812ZM10.9371 25.7028C11.2576 25.3824 11.2576 24.8632 10.9371 24.5428L9.77716 23.3828L10.9371 22.2228C11.2576 21.9024 11.2576 21.3833 10.9371 21.0629C10.6167 20.7424 10.0976 20.7424 9.77716 21.0629L8.61719 22.2228L7.45721 21.0629C7.1368 20.7424 6.61765 20.7424 6.29723 21.0629C5.97682 21.3833 5.97682 21.9024 6.29723 22.2228L7.45721 23.3828L6.29723 24.5428C5.97682 24.8632 5.97682 25.3824 6.29723 25.7028C6.61765 26.0232 7.1368 26.0232 7.45721 25.7028L8.61719 24.5428L9.77716 25.7028C10.0976 26.0232 10.6167 26.0232 10.9371 25.7028Z" fill="#4570b6"/>
</svg>
