<svg width="22" height="22" viewBox="0 0 22 22" fill="none" xmlns="http://www.w3.org/2000/svg">
<path d="M13.21 1.66L14.09 0.78C15.13 -0.26 16.94 -0.26 17.98 0.78L18.69 1.49C19.21 2.01 19.5 2.7 19.5 3.43C19.5 4.16 19.21 4.86 18.69 5.37L17.81 6.25L13.21 1.65V1.66ZM12.15 2.72L3.04 11.83C2.75 12.12 2.57 12.5 2.54 12.91L2.27 15.84C2.24 16.21 2.37 16.57 2.63 16.84C2.87 17.08 3.18 17.21 3.51 17.21H3.62L6.55 16.94C6.96 16.9 7.34 16.72 7.63 16.43L16.74 7.32L12.14 2.72H12.15ZM21.5 20.4C21.5 19.99 21.16 19.65 20.75 19.65H0.75C0.34 19.65 0 19.99 0 20.4C0 20.81 0.34 21.15 0.75 21.15H20.75C21.16 21.15 21.5 20.81 21.5 20.4Z" fill="black"/>
</svg>
