<svg width="32" height="32" viewBox="0 0 32 32" fill="none" xmlns="http://www.w3.org/2000/svg">
<path fill-rule="evenodd" clip-rule="evenodd" d="M3 0C1.34315 0 0 1.34315 0 3V29C0 30.6569 1.34315 32 3 32H29C30.6569 32 32 30.6569 32 29V3C32 1.34315 30.6569 0 29 0H3ZM14.3149 27.3271L14.5758 27.1656L14.5758 27.1655C9.98605 26.383 6.33825 22.8359 5.40402 18.2966L6.35718 18.2628C6.55229 18.2559 6.66656 18.0418 6.56383 17.8757L4.36617 14.3215C4.26208 14.153 4.01539 14.163 3.92502 14.3392L2.02852 18.0387C1.93986 18.2116 2.06897 18.4149 2.26308 18.4081L3.18945 18.3752C4.18336 23.9863 8.63551 28.4011 14.2632 29.3354C13.5662 28.8575 13.5674 27.7899 14.3149 27.3271ZM27.3573 7.9697C29.0263 10.2303 29.9999 13.0178 29.9999 16H30C30 22.6558 25.193 28.1871 18.8638 29.3097L18.8966 30.2367C18.9035 30.431 18.7003 30.5602 18.5275 30.4715L14.8306 28.5737C14.6545 28.4833 14.6445 28.2364 14.8129 28.1322L18.3647 25.9331C18.5308 25.8303 18.7446 25.9446 18.7515 26.1399L18.7853 27.0937C23.9365 26.0321 27.81 21.469 27.81 15.9999C27.81 15.1578 27.7179 14.3195 27.5317 13.4978C27.2252 12.1458 26.6739 10.8717 25.919 9.73409C25.864 9.65117 25.8654 9.54825 25.9227 9.46681L26.9737 7.97402C27.0189 7.9098 27.0859 7.87453 27.1644 7.87364C27.2428 7.87281 27.3107 7.90655 27.3573 7.9697ZM5.33275 14.0852L5.17082 13.8233C4.70832 13.0753 3.64148 13.0741 3.16384 13.7716C4.09748 8.13997 8.50935 3.68484 14.1165 2.69026L14.0837 1.76326C14.0768 1.56902 14.28 1.43982 14.4528 1.52854L18.1498 3.42633C18.3259 3.5167 18.3358 3.76356 18.1674 3.86778L14.6156 6.06694C14.4496 6.16974 14.2358 6.05539 14.2289 5.86015L14.1951 4.90634C9.65869 5.84121 6.11439 9.49191 5.33275 14.0852ZM16.4901 24.4159C11.8453 24.4159 8.07991 20.648 8.07991 16H8.07979C8.07979 11.352 11.8452 7.58405 16.49 7.58405C17.1337 7.58405 17.7602 7.65667 18.3624 7.79368L18.7507 9.24345L18.3302 9.97224C17.7481 9.79451 17.1303 9.69858 16.4901 9.69858C13.0122 9.69858 10.1929 12.5198 10.1929 16C10.1929 19.4802 13.0122 22.3014 16.4901 22.3014C19.9679 22.3014 22.7872 19.4802 22.7872 16C22.7872 14.1815 22.0172 12.5431 20.7858 11.393L21.2072 10.6627L22.6537 10.2748C24.0476 11.7767 24.9003 13.7886 24.9003 16C24.9003 20.648 21.135 24.4159 16.4901 24.4159ZM17.2304 11.8785L16.0167 13.9821C15.1011 14.1964 14.4192 15.0185 14.4192 16C14.4192 17.1445 15.3464 18.0723 16.4901 18.0723C17.6339 18.0723 18.5611 17.1445 18.5611 16C18.5611 15.7919 18.5303 15.5909 18.4732 15.4014L19.6864 13.2986C20.3025 14.0278 20.6742 14.9704 20.6742 16.0001C20.6742 18.3124 18.8009 20.187 16.4901 20.187C14.1793 20.187 12.3061 18.3124 12.3061 16.0001C12.3061 13.6877 14.1794 11.8132 16.4901 11.8132C16.7427 11.8132 16.9901 11.8355 17.2304 11.8785ZM16.2535 16.4087C16.0279 16.278 15.951 15.989 16.0816 15.7633L19.766 9.37727L19.127 6.9908L21.2334 3.33992C21.3052 3.21552 21.4912 3.24002 21.5283 3.37875L22.2395 6.0348L24.8938 5.32311C25.0325 5.28595 25.1467 5.43491 25.0749 5.55932L22.9685 9.21019L20.5836 9.84961L16.8985 16.2367C16.7679 16.4625 16.4791 16.5395 16.2535 16.4087Z" fill="#4570b6"/>
</svg>
