<svg width="32" height="32" viewBox="0 0 32 32" fill="none" xmlns="http://www.w3.org/2000/svg">
<path fill-rule="evenodd" clip-rule="evenodd" d="M0 3C0 1.34315 1.34315 0 3 0H29C30.6569 0 32 1.34315 32 3V29C32 30.6569 30.6569 32 29 32H3C1.34315 32 0 30.6569 0 29V3ZM4 5C4 3.89543 4.89543 3 6 3H26C27.1046 3 28 3.89543 28 5V9C28 10.1046 27.1046 11 26 11H16H6C4.89543 11 4 10.1046 4 9V5ZM16 21L14.5566 18.5H15.75V13.5H14.5566L16 11L17.4434 13.5H16.25V18.5H17.4434L16 21ZM16 21H26C27.1046 21 28 21.8954 28 23V27C28 28.1046 27.1046 29 26 29H6C4.89543 29 4 28.1046 4 27V23C4 21.8954 4.89543 21 6 21H16ZM5.44 17H4V16H5.44V17ZM10.24 17H7.36V16H10.24V17ZM15.04 17H12.16V16H15.04V17ZM19.84 17H16.96V16H19.84V17ZM24.64 17H21.76V16H24.64V17ZM28 17H26.56V16H28V17Z" fill="#4570b6"/>
</svg>
