<svg width="30" height="30" viewBox="0 0 30 30" fill="none" xmlns="http://www.w3.org/2000/svg">
<path fill-rule="evenodd" clip-rule="evenodd" d="M3 0C1.34315 0 0 1.34315 0 3V27C0 28.6569 1.34315 30 3 30H27C28.6569 30 30 28.6569 30 27V3C30 1.34315 28.6569 0 27 0H3ZM20.514 4.48118C20.8256 4.78928 21.0006 5.20714 21.0006 5.64286V8.59671L23.4019 7.01409C23.5834 6.8916 23.7876 6.80591 24.0028 6.76199C24.2179 6.71807 24.4398 6.71679 24.6555 6.75823C24.8712 6.79967 25.0764 6.883 25.2593 7.0034C25.4422 7.12379 25.5991 7.27887 25.721 7.45964C25.8428 7.64041 25.9272 7.8433 25.9693 8.05654C26.0113 8.26979 26.0102 8.48917 25.9659 8.70197C25.9216 8.91478 25.8351 9.11679 25.7114 9.29631C25.5876 9.47583 25.4291 9.62929 25.2449 9.74781L22.3342 11.6667L25.2449 13.5855C25.6062 13.8294 25.8557 14.2044 25.9391 14.629C26.0225 15.0537 25.9332 15.4937 25.6906 15.8537C25.4479 16.2136 25.0715 16.4644 24.643 16.5515C24.2145 16.6387 23.7685 16.5552 23.4019 16.3192L21.0006 14.7366V17.6905C21.0006 18.1262 20.8256 18.5441 20.514 18.8522C20.2024 19.1602 19.7799 19.3333 19.3392 19.3333C18.8986 19.3333 18.476 19.1602 18.1645 18.8522C17.8529 18.5441 17.6778 18.1262 17.6778 17.6905V14.7366L15.2766 16.3192C14.9099 16.5552 14.464 16.6387 14.0355 16.5515C13.607 16.4644 13.2306 16.2136 12.9879 15.8537C12.7452 15.4937 12.6559 15.0537 12.7394 14.629C12.8228 14.2044 13.0722 13.8294 13.4335 13.5855L16.3443 11.6667L13.4335 9.74781C13.2494 9.62929 13.0909 9.47583 12.9671 9.29631C12.8433 9.11679 12.7568 8.91478 12.7125 8.70197C12.6683 8.48917 12.6671 8.26979 12.7092 8.05654C12.7512 7.8433 12.8356 7.64041 12.9575 7.45964C13.0794 7.27887 13.2363 7.12379 13.4192 7.0034C13.6021 6.883 13.8073 6.79967 14.023 6.75823C14.2387 6.71679 14.4605 6.71807 14.6757 6.76199C14.8909 6.80591 15.0951 6.8916 15.2766 7.01409L17.6778 8.59671V5.64286C17.6778 5.20714 17.8529 4.78928 18.1645 4.48118C18.476 4.17309 18.8986 4 19.3392 4C19.7799 4 20.2024 4.17309 20.514 4.48118ZM9.89154 26.6248C9.28683 26.8725 8.63871 27 7.98418 27C6.66229 27 5.39455 26.4807 4.45983 25.5565C3.52512 24.6322 3 23.3786 3 22.0714C3 20.7643 3.52512 19.5107 4.45983 18.5864C5.39455 17.6621 6.66229 17.1429 7.98418 17.1429C8.63871 17.1429 9.28683 17.2703 9.89154 17.518C10.4962 17.7657 11.0457 18.1287 11.5085 18.5864C11.9713 19.0441 12.3385 19.5874 12.589 20.1853C12.8394 20.7833 12.9684 21.4242 12.9684 22.0714C12.9684 22.7187 12.8394 23.3596 12.589 23.9575C12.3385 24.5555 11.9713 25.0988 11.5085 25.5565C11.0457 26.0141 10.4962 26.3771 9.89154 26.6248Z" fill="#4570b6"/>
</svg>
