<svg width="32" height="32" viewBox="0 0 32 32" fill="none" xmlns="http://www.w3.org/2000/svg">
<path fill-rule="evenodd" clip-rule="evenodd" d="M3 0C1.34315 0 0 1.34314 0 3V29C0 30.6569 1.34315 32 3 32H29C30.6569 32 32 30.6569 32 29V3C32 1.34314 30.6569 0 29 0H3ZM30 3.87006C30.003 4.36511 29.8108 4.84137 29.4651 5.19568L26.9765 7.6842C28.9846 10.3357 29.9652 13.6243 29.7372 16.9425C29.5092 20.2607 28.088 23.3843 25.7361 25.7361C23.3843 28.088 20.2607 29.5092 16.9425 29.7372C13.6243 29.9652 10.3357 28.9846 7.68422 26.9765L5.19567 29.4651C4.84137 29.8108 4.36509 30.003 3.87006 29.9999C3.37503 29.9969 2.90115 29.799 2.5511 29.4489C2.20106 29.0989 2.00306 28.6249 2.00003 28.1299C1.99701 27.6349 2.18918 27.1586 2.53492 26.8043L5.02347 24.3158C3.0154 21.6643 2.03478 18.3757 2.26278 15.0575C2.49078 11.7393 3.912 8.61572 6.26386 6.26385C8.61572 3.91199 11.7393 2.49078 15.0575 2.26276C18.3757 2.03479 21.6643 3.01538 24.3158 5.0235L26.8043 2.53491C27.1586 2.18921 27.6349 1.99701 28.1299 2.00006C28.625 2.00305 29.0989 2.20105 29.4489 2.55109C29.7989 2.90112 29.9969 3.37506 30 3.87006ZM16 5.99316C10.4823 5.99316 5.99315 10.4823 5.99315 16C5.99088 18.0038 6.59364 19.9617 7.72255 21.6172L21.6173 7.72253C19.9617 6.59363 18.0038 5.99091 16 5.99316ZM16 26.0068C21.5177 26.0068 26.0069 21.5177 26.0069 16C26.0091 13.9962 25.4064 12.0383 24.2775 10.3828L10.3827 24.2775C12.0383 25.4064 13.9962 26.0091 16 26.0068Z" fill="#4570b6"/>
</svg>
