<svg width="32" height="32" viewBox="0 0 32 32" fill="none" xmlns="http://www.w3.org/2000/svg">
<path fill-rule="evenodd" clip-rule="evenodd" d="M3 0C1.34315 0 0 1.34315 0 3V29C0 30.6569 1.34315 32 3 32H29C30.6569 32 32 30.6569 32 29V3C32 1.34315 30.6569 0 29 0H3ZM5.72055 13.1998C6.1014 13.36 6.53302 13.4439 6.97637 13.4439C7.02715 13.4439 7.07793 13.4439 7.13652 13.442C7.7283 13.4166 8.31031 13.2291 8.91771 12.8697C9.36301 12.6041 9.75362 12.2838 10.0798 11.9167C10.1403 11.8483 10.195 11.7819 10.2458 11.7155C10.7009 11.1218 11.0583 10.4226 11.3708 9.5183C11.6872 8.60036 12.1012 7.71367 12.5992 6.87971C12.6239 6.83818 12.6473 6.79988 12.6694 6.76369L12.6695 6.76361L12.6696 6.7635C12.6859 6.73679 12.7015 6.71122 12.7164 6.68636C12.9586 6.29574 13.2652 5.83873 13.7047 5.41882C13.7633 5.36413 13.8218 5.3114 13.8804 5.26062C14.0855 5.08485 14.3668 4.86415 14.7144 4.72158C15.0191 4.59658 15.398 4.51065 15.8101 4.47158C16.2417 4.43057 16.6753 4.44424 17.0639 4.51065C17.2612 4.54385 17.4506 4.59072 17.6303 4.65127C18.3803 4.90516 18.8529 5.38562 19.2182 5.82115C19.5209 6.18247 19.7572 6.55941 19.9486 6.87971C20.4466 7.71367 20.8587 8.60231 21.1771 9.5183C21.4896 10.4226 21.847 11.1198 22.302 11.7155C22.3528 11.7819 22.4075 11.8503 22.4681 11.9167C22.7942 12.2858 23.1848 12.6061 23.6301 12.8697C24.2375 13.2291 24.8195 13.4166 25.4113 13.442C25.9074 13.4635 26.3957 13.3815 26.8214 13.2018C27.0597 13.1022 27.173 12.8268 27.0714 12.5885C26.9718 12.3502 26.6964 12.237 26.4582 12.3385C26.1632 12.4616 25.8078 12.5221 25.4523 12.5065C25.0109 12.4869 24.5852 12.3463 24.1067 12.0631C23.7454 11.8483 23.429 11.5905 23.1672 11.2956C23.1223 11.2448 23.0813 11.194 23.0442 11.1471C22.6516 10.6335 22.3391 10.0183 22.0599 9.21166C21.72 8.23513 21.2806 7.2879 20.7494 6.39926C20.5384 6.04575 20.2767 5.62975 19.933 5.21961C19.5111 4.71376 18.9018 4.09269 17.9272 3.76262C17.7006 3.68645 17.4624 3.62591 17.2163 3.58489C16.7475 3.50482 16.23 3.48919 15.7202 3.53607C15.2183 3.58294 14.7456 3.69231 14.355 3.85246C13.8824 4.04582 13.525 4.3251 13.2672 4.5458C13.1969 4.60635 13.1246 4.67275 13.0543 4.73915C12.5328 5.23523 12.1715 5.77623 11.9157 6.19223C11.8997 6.21916 11.883 6.24682 11.8655 6.27567L11.8653 6.27605L11.865 6.27657L11.8649 6.27673C11.842 6.31452 11.8179 6.35436 11.7926 6.3973C11.2614 7.28595 10.82 8.23318 10.4821 9.20971C10.2028 10.0163 9.89034 10.6315 9.49777 11.1452C9.46066 11.194 9.41965 11.2428 9.37473 11.2936C9.11302 11.5885 8.79662 11.8463 8.43531 12.0612C7.95681 12.3444 7.52908 12.485 7.08965 12.5045C6.73419 12.5202 6.37678 12.4596 6.08382 12.3366C5.84555 12.237 5.57016 12.3483 5.47056 12.5866C5.37095 12.8248 5.48228 13.0983 5.72055 13.1998ZM29.4003 29.2685H3.59561V30.5313C3.59561 30.791 3.38663 31 3.12687 31C2.86711 31 2.65814 30.7891 2.65814 30.5313V29.2685H1.46873C1.20898 29.2685 1 29.0576 1 28.7998C1 28.542 1.21093 28.331 1.46873 28.331H2.65814V2.6025L2.16597 3.09466C1.98239 3.27825 1.68552 3.27825 1.50389 3.09466C1.32225 2.91107 1.3203 2.61421 1.50389 2.43257L2.79486 1.13769C2.97845 0.954103 3.27531 0.954103 3.45695 1.13769L4.74987 2.43062C4.93346 2.61421 4.93346 2.91107 4.74987 3.09271C4.66003 3.1845 4.53894 3.23137 4.41981 3.23137C4.30067 3.23137 4.17958 3.18645 4.08779 3.09466L3.59561 2.60248V28.331H29.3965L28.9062 27.8408C28.7227 27.6572 28.7227 27.3603 28.9062 27.1787C29.0898 26.9971 29.3867 26.9951 29.5683 27.1787L30.8246 28.435C30.9311 28.5211 30.999 28.6528 30.999 28.7998C30.999 28.8374 30.9946 28.8741 30.9862 28.9092C30.9667 28.9944 30.9239 29.073 30.8613 29.1357L29.5683 30.4286C29.4785 30.5145 29.3594 30.5614 29.2383 30.5614C29.1191 30.5614 28.998 30.5165 28.9062 30.4247C28.7227 30.2411 28.7227 29.9442 28.9062 29.7626L29.4003 29.2685ZM5.74218 18.991H8.94911V26.2896H5.74218V18.991ZM14.8981 14.0126H11.6912V26.2896H14.8981V14.0126ZM17.6406 12.7041H20.8475V26.2876H17.6406V12.7041ZM26.7948 15.9111H23.5879V26.2897H26.7948V15.9111Z" fill="#4570b6"/>
</svg>
