<svg width="10" height="13" viewBox="0 0 10 13" xmlns="http://www.w3.org/2000/svg">
<path d="M9.7207 10.7148V13H0.791016V11.0664L4.9043 6.74219C5.26758 6.32617 5.56055 5.9541 5.7832 5.62598C6.00586 5.29199 6.16699 4.99023 6.2666 4.7207C6.37207 4.45117 6.4248 4.20801 6.4248 3.99121C6.4248 3.62207 6.36914 3.31445 6.25781 3.06836C6.15234 2.81641 5.99414 2.62598 5.7832 2.49707C5.57812 2.36816 5.32324 2.30371 5.01855 2.30371C4.71387 2.30371 4.44727 2.3916 4.21875 2.56738C3.99023 2.74316 3.81152 2.9834 3.68262 3.28809C3.55957 3.59277 3.49805 3.93555 3.49805 4.31641H0.527344C0.527344 3.53125 0.717773 2.81348 1.09863 2.16309C1.48535 1.5127 2.02148 0.994141 2.70703 0.607422C3.39258 0.214844 4.18652 0.0185547 5.08887 0.0185547C6.03223 0.0185547 6.82324 0.165039 7.46191 0.458008C8.10059 0.750977 8.58105 1.17578 8.90332 1.73242C9.23145 2.2832 9.39551 2.94824 9.39551 3.72754C9.39551 4.17285 9.3252 4.60059 9.18457 5.01074C9.04395 5.4209 8.8418 5.82812 8.57812 6.23242C8.31445 6.63086 7.99219 7.04102 7.61133 7.46289C7.23633 7.88477 6.80859 8.33301 6.32812 8.80762L4.67578 10.7148H9.7207Z" fill="black"/>
</svg>
