<svg width="30" height="30" viewBox="0 0 30 30" fill="none" xmlns="http://www.w3.org/2000/svg">
<path fill-rule="evenodd" clip-rule="evenodd" d="M0 3C0 1.34315 1.34315 0 3 0H27C28.6569 0 30 1.34315 30 3V27C30 28.6569 28.6569 30 27 30H3C1.34315 30 0 28.6569 0 27V3ZM8.35547 15.0273L7.94531 13.9492H4.45312L4.04297 15.0508C3.88281 15.4805 3.74609 15.7715 3.63281 15.9238C3.51953 16.0723 3.33398 16.1465 3.07617 16.1465C2.85742 16.1465 2.66406 16.0664 2.49609 15.9062C2.32812 15.7461 2.24414 15.5645 2.24414 15.3613C2.24414 15.2441 2.26367 15.123 2.30273 14.998C2.3418 14.873 2.40625 14.6992 2.49609 14.4766L4.69336 8.89844C4.75586 8.73828 4.83008 8.54688 4.91602 8.32422C5.00586 8.09766 5.09961 7.91016 5.19727 7.76172C5.29883 7.61328 5.42969 7.49414 5.58984 7.4043C5.75391 7.31055 5.95508 7.26367 6.19336 7.26367C6.43555 7.26367 6.63672 7.31055 6.79688 7.4043C6.96094 7.49414 7.0918 7.61133 7.18945 7.75586C7.29102 7.90039 7.375 8.05664 7.44141 8.22461C7.51172 8.38867 7.59961 8.60938 7.70508 8.88672L9.94922 14.4297C10.125 14.8516 10.2129 15.1582 10.2129 15.3496C10.2129 15.5488 10.1289 15.7324 9.96094 15.9004C9.79688 16.0645 9.59766 16.1465 9.36328 16.1465C9.22656 16.1465 9.10938 16.1211 9.01172 16.0703C8.91406 16.0234 8.83203 15.959 8.76562 15.877C8.69922 15.791 8.62695 15.6621 8.54883 15.4902C8.47461 15.3145 8.41016 15.1602 8.35547 15.0273ZM7.47656 12.6426L6.18164 9.09766L4.91016 12.6426H7.47656ZM15.1641 16H12.5391C12.1602 16 11.8887 15.916 11.7246 15.748C11.5645 15.5762 11.4844 15.3047 11.4844 14.9336V8.47656C11.4844 8.09766 11.5664 7.82617 11.7305 7.66211C11.8984 7.49414 12.168 7.41016 12.5391 7.41016H15.3223C15.7324 7.41016 16.0879 7.43555 16.3887 7.48633C16.6895 7.53711 16.959 7.63477 17.1973 7.7793C17.4004 7.90039 17.5801 8.05469 17.7363 8.24219C17.8926 8.42578 18.0117 8.63086 18.0938 8.85742C18.1758 9.08008 18.2168 9.31641 18.2168 9.56641C18.2168 10.4258 17.7871 11.0547 16.9277 11.4531C18.0566 11.8125 18.6211 12.5117 18.6211 13.5508C18.6211 14.0312 18.498 14.4648 18.252 14.8516C18.0059 15.2344 17.6738 15.5176 17.2559 15.7012C16.9941 15.8105 16.6934 15.8887 16.3535 15.9355C16.0137 15.9785 15.6172 16 15.1641 16ZM15.0352 12.1855H13.2246V14.6934H15.0938C16.2695 14.6934 16.8574 14.2695 16.8574 13.4219C16.8574 12.9883 16.7051 12.6738 16.4004 12.4785C16.0957 12.2832 15.6406 12.1855 15.0352 12.1855ZM13.2246 8.7168V10.9375H14.8184C15.252 10.9375 15.5859 10.8965 15.8203 10.8145C16.0586 10.7324 16.2402 10.5762 16.3652 10.3457C16.4629 10.1816 16.5117 9.99805 16.5117 9.79492C16.5117 9.36133 16.3574 9.07422 16.0488 8.93359C15.7402 8.78906 15.2695 8.7168 14.6367 8.7168H13.2246ZM27.4512 13.2871C27.4512 13.5605 27.3828 13.8574 27.2461 14.1777C27.1133 14.4941 26.9023 14.8066 26.6133 15.1152C26.3242 15.4199 25.9551 15.668 25.5059 15.8594C25.0566 16.0508 24.5332 16.1465 23.9355 16.1465C23.4824 16.1465 23.0703 16.1035 22.6992 16.0176C22.3281 15.9316 21.9902 15.7988 21.6855 15.6191C21.3848 15.4355 21.1074 15.1953 20.8535 14.8984C20.627 14.6289 20.4336 14.3281 20.2734 13.9961C20.1133 13.6602 19.9922 13.3027 19.9102 12.9238C19.832 12.5449 19.793 12.1426 19.793 11.7168C19.793 11.0254 19.8926 10.4062 20.0918 9.85938C20.2949 9.3125 20.584 8.8457 20.959 8.45898C21.334 8.06836 21.7734 7.77148 22.2773 7.56836C22.7812 7.36523 23.3184 7.26367 23.8887 7.26367C24.584 7.26367 25.2031 7.40234 25.7461 7.67969C26.2891 7.95703 26.7051 8.30078 26.9941 8.71094C27.2832 9.11719 27.4277 9.50195 27.4277 9.86523C27.4277 10.0645 27.3574 10.2402 27.2168 10.3926C27.0762 10.5449 26.9062 10.6211 26.707 10.6211C26.4844 10.6211 26.3164 10.5684 26.2031 10.4629C26.0938 10.3574 25.9707 10.1758 25.834 9.91797C25.6074 9.49219 25.3398 9.17383 25.0312 8.96289C24.7266 8.75195 24.3496 8.64648 23.9004 8.64648C23.1855 8.64648 22.6152 8.91797 22.1895 9.46094C21.7676 10.0039 21.5566 10.7754 21.5566 11.7754C21.5566 12.4434 21.6504 13 21.8379 13.4453C22.0254 13.8867 22.291 14.2168 22.6348 14.4355C22.9785 14.6543 23.3809 14.7637 23.8418 14.7637C24.3418 14.7637 24.7637 14.6406 25.1074 14.3945C25.4551 14.1445 25.7168 13.7793 25.8926 13.2988C25.9668 13.0723 26.0586 12.8887 26.168 12.748C26.2773 12.6035 26.4531 12.5312 26.6953 12.5312C26.9023 12.5312 27.0801 12.6035 27.2285 12.748C27.377 12.8926 27.4512 13.0723 27.4512 13.2871ZM3.5 20C2.67157 20 2 20.6716 2 21.5C2 22.3284 2.67157 23 3.5 23H26.5C27.3284 23 28 22.3284 28 21.5C28 20.6716 27.3284 20 26.5 20H3.5Z" fill="#4570b6"/>
</svg>
