<?xml version="1.0" standalone="no"?><!DOCTYPE svg PUBLIC "-//W3C//DTD SVG 1.1//EN" "http://www.w3.org/Graphics/SVG/1.1/DTD/svg11.dtd"><svg t="1741510204609" class="icon" viewBox="0 0 1024 1024" version="1.1" xmlns="http://www.w3.org/2000/svg" p-id="2399" xmlns:xlink="http://www.w3.org/1999/xlink" width="200" height="200"><path d="M405.349 128.078L320.8 212.626 184.65 76.476c-21.019-21.019-61.798-14.326-91.073 14.95-29.275 29.275-35.969 70.054-14.95 91.073l136.15 136.15-90.616 90.616c-11.365 11.365-3.316 30.798 12.757 30.798h281.187c9.964 0 18.041-8.077 18.041-18.041V140.835c0.001-16.073-19.432-24.122-30.797-12.757zM619.175 891.11l84.548-84.548 136.15 136.15c21.019 21.019 61.798 14.326 91.073-14.95 29.275-29.275 35.969-70.054 14.95-91.073l-136.15-136.15 90.616-90.616c11.365-11.365 3.316-30.798-12.757-30.798H606.418c-9.964 0-18.041 8.077-18.041 18.041v281.187c0 16.073 19.433 24.122 30.798 12.757zM183.465 941.528l136.15-136.15 90.616 90.616c11.365 11.365 30.798 3.316 30.798-12.757V602.049c0-9.964-8.077-18.041-18.041-18.041H141.802c-16.073 0-24.122 19.433-12.757 30.798l84.548 84.548-136.15 136.15c-21.019 21.019-14.326 61.798 14.95 91.073 29.275 29.276 70.053 35.97 91.072 14.951zM601.535 435.18h281.187c16.073 0 24.122-19.433 12.757-30.798l-84.548-84.548 136.15-136.15c21.019-21.019 14.326-61.798-14.95-91.073-29.275-29.275-70.054-35.969-91.073-14.95l-136.15 136.15-90.616-90.616c-11.365-11.365-30.798-3.316-30.798 12.757v281.187c-0.001 9.963 8.077 18.041 18.041 18.041z" p-id="2400" fill="#4570b6"></path></svg>