<?xml version="1.0" standalone="no"?><!DOCTYPE svg PUBLIC "-//W3C//DTD SVG 1.1//EN" "http://www.w3.org/Graphics/SVG/1.1/DTD/svg11.dtd"><svg t="1741510231692" class="icon" viewBox="0 0 1024 1024" version="1.1" xmlns="http://www.w3.org/2000/svg" p-id="3407" xmlns:xlink="http://www.w3.org/1999/xlink" width="200" height="200"><path d="M256 316.330667V384a42.666667 42.666667 0 1 1-85.333333 0V213.333333a42.666667 42.666667 0 0 1 42.666666-42.666666h170.666667a42.666667 42.666667 0 1 1 0 85.333333H316.330667l97.834666 97.834667a42.666667 42.666667 0 0 1-60.330666 60.330666L256 316.330667zM640 256a42.666667 42.666667 0 1 1 0-85.333333h170.666667a42.666667 42.666667 0 0 1 42.666666 42.666666v170.666667a42.666667 42.666667 0 1 1-85.333333 0V316.330667l-97.834667 97.834666a42.666667 42.666667 0 0 1-60.330666-60.330666L707.669333 256H640zM213.333333 597.333333a42.666667 42.666667 0 0 1 42.666667 42.666667v67.669333l97.834667-97.834666a42.666667 42.666667 0 0 1 60.330666 60.330666L316.330667 768H384a42.666667 42.666667 0 1 1 0 85.333333H213.333333a42.666667 42.666667 0 0 1-42.666666-42.666666v-170.666667a42.666667 42.666667 0 0 1 42.666666-42.666667z m396.501334 72.832a42.666667 42.666667 0 0 1 60.330666-60.330666L768 707.669333V640a42.666667 42.666667 0 1 1 85.333333 0v170.666667a42.666667 42.666667 0 0 1-42.666666 42.666666h-170.666667a42.666667 42.666667 0 1 1 0-85.333333h67.669333l-97.834666-97.834667z" fill="#4570b6" p-id="3408"></path></svg>