<?xml version="1.0" standalone="no"?><!DOCTYPE svg PUBLIC "-//W3C//DTD SVG 1.1//EN" "http://www.w3.org/Graphics/SVG/1.1/DTD/svg11.dtd"><svg t="1743141647935" class="icon" viewBox="0 0 1588 1024" version="1.1" xmlns="http://www.w3.org/2000/svg" p-id="27660" id="mx_n_1743141647937" xmlns:xlink="http://www.w3.org/1999/xlink" width="310.15625" height="200"><path d="M0 766.115733a794.304725 257.884267 0 1 0 1588.60945 0 794.304725 257.884267 0 1 0-1588.60945 0Z" fill="#E8F1FF" p-id="27661"></path><path d="M429.118715 281.784014l362.202954-83.737369v531.636978h-362.202954V281.784014z" fill="#AFC0EF" p-id="27662"></path><path d="M791.321669 198.046645l424.54705 106.136762v425.500216H787.420751l3.883267-531.654629z" fill="#90ABEB" p-id="27663"></path><path d="M429.118715 281.784014v447.899609l420.62848 182.072294V409.331702l-420.62848-127.547688z" fill="#9DBDF2" p-id="27664"></path><path d="M848.776378 409.331702v502.424215l367.07469-188.903315v-418.686846L848.776378 409.331702z" fill="#6B92E2" p-id="27665"></path><path d="M848.776378 409.331702l131.448606 247.311188 357.34887-175.258924-121.722786-177.21821-367.07469 105.165946z" fill="#AEC2F2" p-id="27666"></path><path d="M429.118715 281.784014l-109.049213 182.072294 109.049213 44.798787V281.784014z" fill="#A1C1FB" p-id="27667"></path><path d="M486.997052 429.807112a9.743471 9.743471 0 0 1 11.120267-6.689811l1.094375 0.300071 283.337321 88.609105a9.743471 9.743471 0 0 1-4.695224 18.851499l-1.112026-0.28242-283.337321-88.609105a9.743471 9.743471 0 0 1-6.38974-12.179339z m3.91857 102.200541a9.72582 9.72582 0 0 1 11.084964-6.636857l1.112027 0.28242 151.906366 47.711237a9.743471 9.743471 0 0 1-4.730526 18.851499l-1.112027-0.28242-151.906366-47.711237a9.743471 9.743471 0 0 1-6.354438-12.214642z m-0.017651 98.387879a9.743471 9.743471 0 0 1 11.067313-6.689811l1.112026 0.264768 122.675952 37.985417a9.72582 9.72582 0 0 1-4.64227 18.86915l-1.112026-0.264768-122.675952-37.985417a9.743471 9.743471 0 0 1-6.425043-12.179339z" fill="#FFFFFF" p-id="27668"></path><path d="M985.290883 101.653354v95.404823L1198.535225 8.172513l-213.226691 93.480841z" fill="#406AC6" p-id="27669"></path><path d="M1198.535225 8.172513l-179.159844 114.909417 95.422475 64.250427L1198.535225 8.172513z m-276.523952 36.008481l63.297261 58.425525L1198.517574 8.190164l-276.523952 36.008481z" fill="#BCD0F1" p-id="27670"></path><path d="M959.714271 127.0005l-10.361264 8.084257-5.012945 3.953872a4.871736 4.871736 0 0 0 6.036716 7.642977l4.995294-3.936221 10.30831-8.031304a4.889387 4.889387 0 0 0-2.365263-8.684398 4.871736 4.871736 0 0 0-3.600848 0.970817z m-30.607209 24.288073c-5.22476 4.253943-10.237705 8.41963-15.056487 12.47941a4.871736 4.871736 0 1 0 6.301484 7.448813c4.765828-4.042128 9.72582-8.172513 14.915278-12.391153a4.871736 4.871736 0 1 0-6.177926-7.53707z m-29.883509 25.294193c-5.118853 4.536363-9.972937 8.913864-14.526951 13.185458a4.871736 4.871736 0 0 0 6.654509 7.11344c4.483409-4.183338 9.249237-8.525537 14.315136-13.008946a4.889387 4.889387 0 0 0-1.076724-8.013652 4.871736 4.871736 0 0 0-5.36597 0.706049v0.017651z m-28.630272 26.882802c-4.64227 4.677572-9.14333 9.478703-13.520832 14.421044a4.871736 4.871736 0 0 0 7.307604 6.442694c3.936221-4.448106 8.296072-9.125679 13.132505-14.015066a4.871736 4.871736 0 0 0-6.919277-6.848672z m-26.088498 30.007067a107.566511 107.566511 0 0 0-10.573078 17.474704 4.889387 4.889387 0 1 0 8.843259 4.077431c2.206402-4.765828 5.418923-10.061193 9.602262-15.833141a4.836433 4.836433 0 0 0 0.211814-5.418923 4.889387 4.889387 0 0 0-8.101908-0.317722z m-15.144743 38.726769c0.282419 7.660628 1.588609 14.544602 3.900919 20.687225a4.871736 4.871736 0 0 0 9.125678-3.441987 55.195353 55.195353 0 0 1-3.300777-17.598263 4.871736 4.871736 0 1 0-9.72582 0.353025z m15.886094 38.797373c5.313016 4.924689 11.632151 8.649096 18.498475 10.943754a4.871736 4.871736 0 0 0 3.177219-9.196284 41.586265 41.586265 0 0 1-15.021185-8.843259 4.871736 4.871736 0 1 0-6.67216 7.095789z m39.715237 14.579904l1.765121 0.017651c7.236999 0 14.209229-2.965404 19.787014-8.101908a4.871736 4.871736 0 0 0-6.583904-7.166394c-3.865616 3.547894-8.525537 5.542482-13.220761 5.542482l-1.535656-0.017651a4.889387 4.889387 0 0 0-4.977643 4.765828 4.871736 4.871736 0 0 0 4.765829 4.959992z m32.160515-28.330202a25.717822 25.717822 0 0 0-8.27842-22.417044 4.871736 4.871736 0 0 0-6.619206 7.148742 16.009653 16.009653 0 0 1 5.242411 14.120973 4.836433 4.836433 0 0 0 2.418217 4.924689 4.871736 4.871736 0 0 0 7.236998-3.77736z m-28.030131-31.948701c-1.765122-0.388327-3.547894-0.706049-5.348318-0.953166a38.479651 38.479651 0 0 0-16.592143 1.059073 4.854084 4.854084 0 1 0 2.682985 9.355145c4.05978-1.182631 8.313723-1.4474 12.479409-0.794305 1.659214 0.247117 3.177219 0.529536 4.659921 0.86491a4.854084 4.854084 0 0 0 5.824902-3.689104 4.871736 4.871736 0 0 0-3.706756-5.824902z m-41.445055 11.102615a98.582042 98.582042 0 0 0-13.979763 14.985882 4.924689 4.924689 0 0 0-0.353025 5.401273 4.889387 4.889387 0 0 0 8.066606 0.529536c3.706755-4.924689 7.943047-9.443401 12.567666-13.50318a4.871736 4.871736 0 1 0-6.301484-7.413511z m-25.117681 31.578026c-3.353731 5.701343-6.513299 11.543895-9.425749 17.474704a4.871736 4.871736 0 0 0 8.737352 4.306896c3.000707-6.08967 6.019065-11.685105 9.055074-16.803957a4.889387 4.889387 0 0 0-1.659215-6.742765 4.871736 4.871736 0 0 0-6.707462 1.765122z m-17.386448 34.878803c-2.559426 6.036716-5.012945 12.126385-7.325254 18.269008a4.871736 4.871736 0 0 0 9.108027 3.424336c2.382914-6.266182 4.765828-12.214642 7.184045-17.86303a4.854084 4.854084 0 1 0-8.966818-3.830314z m-14.032716 36.979297l-1.465051 4.359851-2.930102 8.966818a4.871736 4.871736 0 1 0 9.28454 2.965404l1.429748-4.465758 2.894799-8.684398a4.871736 4.871736 0 0 0-9.213934-3.141917z" fill="#B7DCFC" p-id="27671"></path></svg>